<svg width="478" height="3758" viewBox="0 0 478 3758" fill="none" xmlns="http://www.w3.org/2000/svg">
<path d="M245 125C245 220.2 20.5 211 20.5 399C23.0312 501.654 176.641 631.202 299 766.287C311.399 779.976 323.476 793.72 335.043 807.5C395.151 879.104 441.471 951.643 447.388 1022C449.073 1042.03 447.482 1061.89 442 1081.5C399.009 1235.27 196.352 1328.24 88.4873 1488C33.265 1569.79 2.88781 1669.08 31.5 1803C116 2198.5 466.5 2341.5 457.5 2509C443.979 2760.64 55.5 2998 55.5 3232.5C44.5 3366.5 245 3362.5 245 3560.5C245 3758.5 245 3730 245 3730" stroke="#DD4F4F" stroke-width="5" stroke-linecap="round" stroke-linejoin="round"/>
<rect x="209" y="52" width="74" height="74" rx="37" fill="#DD4F4F"/>
<rect x="228" width="36" height="36" rx="18" fill="white"/>
<rect x="228" width="36" height="36" rx="18" fill="white"/>
<rect y="379" width="40" height="40" rx="20" fill="#DD4F4F"/>
<rect x="11" y="390" width="18" height="18" rx="9" fill="white"/>
<rect x="12" y="1783" width="40" height="40" rx="20" fill="#DD4F4F"/>
<rect x="23" y="1794" width="18" height="18" rx="9" fill="white"/>
<rect x="438" y="2489" width="40" height="40" rx="20" fill="#DD4F4F"/>
<rect x="449" y="2500" width="18" height="18" rx="9" fill="white"/>
<rect x="35" y="3214" width="40" height="40" rx="20" fill="#DD4F4F"/>
<rect x="46" y="3225" width="18" height="18" rx="9" fill="white"/>
<path d="M335.043 807.5C395.151 879.104 441.471 951.643 447.388 1022C449.073 1042.03 447.482 1061.89 442 1081.5C399.009 1235.27 196.352 1328.24 88.4873 1488" stroke="white" stroke-width="5" stroke-linecap="round" stroke-linejoin="round"/>
<rect x="422" y="1061" width="40" height="40" rx="20" fill="white"/>
<rect x="433" y="1072" width="18" height="18" rx="9" fill="#DD4F4F"/>
<rect x="209" y="3684" width="74" height="74" rx="37" fill="#DD4F4F"/>
<rect x="227" y="3704" width="36" height="36" rx="18" fill="white"/>
<rect x="228" y="71" width="36" height="36" rx="18" fill="white"/>
</svg>
